<?xml version="1.0" standalone="no"?>
<!DOCTYPE svg PUBLIC "-//W3C//DTD SVG 20010904//EN"
 "http://www.w3.org/TR/2001/REC-SVG-20010904/DTD/svg10.dtd">
<svg version="1.0" xmlns="http://www.w3.org/2000/svg"
 width="1024.000000pt" height="1024.000000pt" viewBox="0 0 1024.000000 1024.000000"
 preserveAspectRatio="xMidYMid meet">

<g transform="translate(0.000000,1024.000000) scale(0.11000,-0.100000)"
fill="#000000" stroke="none">
<path d="M4130 9035 c-327 -62 -641 -241 -801 -455 -46 -63 -55 -69 -102 -81
-443 -104 -843 -460 -980 -871 -31 -91 -57 -213 -57 -262 0 -19 -6 -40 -12
-45 -46 -36 -178 -154 -204 -182 -92 -98 -194 -258 -254 -396 -124 -287 -139
-671 -39 -964 27 -81 89 -205 136 -276 l36 -54 -27 -87 c-56 -179 -57 -212
-53 -1091 3 -794 3 -807 25 -891 87 -334 285 -590 562 -730 158 -79 303 -110
521 -110 l129 0 0 -552 c0 -338 4 -570 11 -597 22 -96 91 -146 190 -139 65 5
106 29 230 136 36 31 247 210 470 396 222 187 460 388 529 446 244 207 322
271 353 288 30 16 129 17 1407 22 l1375 5 80 23 c163 45 271 100 397 201 180
143 310 343 375 576 l28 100 0 855 c0 852 0 855 -22 932 -12 43 -33 105 -47
139 l-24 61 47 59 c91 113 175 310 206 485 21 116 21 350 1 465 -32 179 -132
411 -239 554 -65 87 -206 235 -267 280 l-46 34 -12 90 c-36 271 -163 519 -372
730 -116 117 -229 198 -374 267 -91 43 -250 98 -316 109 -28 4 -42 15 -68 55
-86 127 -270 272 -455 360 -191 91 -373 130 -612 130 -287 0 -489 -62 -654
-201 -39 -32 -75 -59 -79 -59 -5 0 -17 9 -27 20 -34 38 -169 123 -244 155
-149 63 -225 77 -446 81 -145 2 -221 -1 -275 -11z m383 -270 c221 -33 435
-166 466 -290 13 -50 16 -775 3 -775 -4 0 -22 25 -40 55 -109 182 -319 370
-508 456 -129 59 -208 58 -258 -2 -70 -83 -34 -183 81 -230 110 -44 194 -102
303 -209 58 -58 136 -148 173 -200 78 -110 183 -317 224 -440 l28 -85 0 -895
c0 -685 -3 -914 -13 -977 -14 -89 -56 -222 -92 -293 -127 -251 -375 -436 -679
-507 -68 -16 -132 -18 -626 -18 -538 0 -552 0 -639 23 -331 84 -553 317 -595
624 -25 182 59 409 196 527 26 23 80 58 120 78 62 30 84 36 160 40 76 4 99 1
165 -21 85 -28 123 -27 171 6 57 40 74 125 37 185 -34 57 -162 108 -300 119
-239 20 -525 -134 -678 -363 -19 -29 -39 -53 -43 -53 -13 0 -95 106 -140 182
-168 278 -180 658 -33 965 51 107 206 328 218 311 2 -1 11 -23 20 -48 55 -143
140 -264 274 -392 100 -94 208 -158 269 -158 111 0 179 116 123 207 -11 18
-56 56 -102 86 -290 188 -399 506 -292 850 83 267 294 499 569 628 46 21 87
39 91 39 5 0 9 -69 10 -153 1 -138 3 -159 28 -232 61 -180 202 -349 351 -420
144 -69 264 -57 301 30 20 49 17 87 -9 126 -23 34 -45 48 -149 93 -183 79
-291 346 -233 571 34 128 143 273 281 371 122 87 334 171 489 193 93 13 171
12 278 -4z m1562 -9 c113 -24 194 -52 286 -99 221 -113 381 -294 418 -475 14
-68 14 -176 0 -244 -30 -140 -140 -274 -267 -322 -93 -36 -132 -80 -132 -149
0 -44 36 -97 80 -120 70 -36 193 3 321 102 195 151 302 393 285 649 -4 71 -3
92 7 92 20 0 172 -76 225 -112 212 -144 370 -345 445 -568 30 -90 31 -103 32
-245 0 -138 -2 -156 -27 -223 -33 -91 -77 -166 -145 -244 -85 -98 -85 -99
-140 -38 -58 64 -149 130 -244 174 -119 57 -186 70 -339 70 -164 0 -224 -14
-369 -85 -89 -44 -116 -64 -190 -138 -89 -89 -143 -174 -180 -284 l-18 -52
-84 -17 c-118 -25 -234 -84 -319 -164 -37 -36 -75 -80 -84 -98 -48 -102 19
-206 132 -206 40 0 49 6 118 71 93 88 152 116 281 133 105 13 154 33 178 69 8
13 24 58 35 101 62 243 249 387 505 388 113 0 189 -23 284 -86 79 -53 115 -93
160 -184 41 -81 76 -105 148 -99 68 5 108 33 249 172 121 119 234 278 276 387
13 32 26 58 30 58 13 0 126 -147 167 -218 53 -91 87 -170 118 -272 32 -105 43
-339 23 -454 -30 -172 -111 -339 -237 -490 -43 -51 -43 -96 -3 -195 17 -40 40
-108 52 -150 22 -75 22 -88 25 -865 4 -865 3 -879 -55 -1023 -82 -201 -256
-363 -472 -439 -155 -54 -122 -53 -1527 -54 -925 0 -1317 -3 -1355 -11 -118
-25 -140 -41 -623 -454 -365 -312 -844 -715 -850 -715 -2 0 -6 228 -7 507 -3
498 -3 509 -25 548 -25 47 -54 76 -103 101 -28 14 -71 19 -220 25 -224 9 -302
25 -435 89 -216 105 -357 269 -427 500 -22 75 -23 76 -26 863 -1 433 1 787 5
787 5 0 9 -26 11 -57 9 -168 88 -362 212 -517 175 -219 421 -353 725 -396 54
-8 251 -10 615 -7 495 3 542 5 625 24 281 64 472 167 660 357 200 202 308 428
345 718 6 50 10 376 10 826 0 585 3 743 13 746 167 49 282 104 399 190 106 79
188 175 240 283 40 82 42 88 77 341 20 140 113 265 257 348 81 47 114 90 114
148 0 82 -71 144 -152 133 -119 -16 -346 -210 -425 -362 -51 -98 -69 -168 -82
-310 -14 -147 -51 -226 -148 -315 -62 -56 -200 -136 -270 -155 l-23 -6 0 721
c0 582 3 727 13 753 17 40 110 126 180 166 66 37 183 77 267 90 85 13 266 6
355 -13z"/>
<path d="M3053 7110 c-56 -33 -78 -108 -53 -175 14 -37 104 -130 175 -180 88
-63 212 -122 307 -146 46 -12 84 -22 85 -23 1 -1 -8 -35 -20 -76 -31 -109 -30
-328 2 -418 36 -105 80 -172 170 -263 96 -95 158 -135 276 -174 71 -24 91 -27
185 -23 95 4 112 7 180 40 89 42 174 104 213 155 21 29 27 47 27 90 0 46 -4
58 -33 89 -28 31 -41 37 -83 41 -52 4 -54 3 -170 -75 -105 -70 -198 -77 -311
-22 -72 36 -130 96 -170 179 -25 51 -28 66 -28 161 1 94 4 113 33 185 l32 80
82 21 c46 12 108 34 138 48 80 38 186 122 239 189 39 51 45 65 49 117 4 59 4
61 -36 100 -35 35 -45 40 -86 40 -62 0 -91 -17 -154 -89 -112 -128 -283 -167
-509 -115 -124 28 -240 93 -341 191 -32 30 -67 59 -80 64 -38 15 -85 10 -119
-11z"/>
<path d="M3830 5319 c-71 -14 -139 -47 -218 -108 -161 -122 -238 -170 -304
-192 -69 -22 -111 -22 -324 -3 -60 6 -62 5 -97 -30 -47 -47 -58 -108 -30 -163
27 -52 56 -70 153 -94 70 -18 102 -21 185 -16 186 11 302 59 480 198 133 104
181 128 248 129 61 0 79 -9 148 -77 62 -60 101 -75 161 -60 71 18 110 88 94
172 -10 51 -110 149 -201 197 -100 52 -193 67 -295 47z"/>
<path d="M6797 5850 c-234 -40 -484 -194 -607 -374 -63 -94 -46 -186 43 -230
68 -33 95 -19 221 107 120 122 189 166 318 206 230 70 525 8 731 -153 68 -53
114 -65 171 -45 78 27 111 126 65 193 -31 45 -143 130 -232 177 -95 49 -223
94 -330 114 -85 16 -297 19 -380 5z"/>
</g>
</svg>
