<?xml version="1.0" standalone="no"?>
<!DOCTYPE svg PUBLIC "-//W3C//DTD SVG 20010904//EN"
 "http://www.w3.org/TR/2001/REC-SVG-20010904/DTD/svg10.dtd">
<svg version="1.0" xmlns="http://www.w3.org/2000/svg"
 width="1024.000000pt" height="1024.000000pt" viewBox="0 0 1024.000000 1024.000000"
 preserveAspectRatio="xMidYMid meet">

<g transform="translate(0.000000,1024.000000) scale(0.100000,-0.100000)"
fill="#000000" stroke="none">
<path d="M4785 9099 c-331 -28 -686 -109 -1012 -229 -184 -68 -526 -238 -693
-345 -483 -309 -896 -721 -1195 -1195 -80 -128 -225 -415 -284 -565 -252 -640
-329 -1322 -226 -1990 118 -762 506 -1496 1091 -2065 961 -935 2338 -1299
3621 -959 777 206 1478 658 1986 1280 372 454 627 965 751 1499 131 571 118
1201 -39 1806 -221 847 -767 1618 -1500 2113 -565 382 -1187 600 -1861 650
-161 13 -492 12 -639 0z m195 -859 l0 -570 -714 0 -715 0 56 108 c270 516 579
821 975 960 107 38 248 66 361 70 l37 2 0 -570z m545 535 c412 -96 748 -373
1031 -847 59 -100 134 -241 134 -253 0 -3 -319 -5 -710 -5 l-710 0 0 570 0
571 78 -6 c42 -4 122 -17 177 -30z m-1761 -268 c-173 -181 -310 -382 -452
-664 l-86 -173 -354 0 -354 0 50 58 c223 254 638 568 994 748 104 53 261 123
277 123 7 1 -27 -41 -75 -92z m2748 48 c391 -173 781 -442 1108 -762 l125
-122 -365 -1 -366 0 -38 84 c-117 261 -329 582 -512 776 -37 38 -64 70 -60 70
3 0 52 -20 108 -45z m-3433 -1275 c-102 -325 -204 -871 -244 -1300 -3 -36 -8
-86 -11 -112 l-6 -48 145 0 145 0 7 63 c58 548 164 1083 276 1400 l31 87 780
0 780 0 -2 -567 c-3 -578 -2 -714 7 -678 9 36 83 266 181 560 l97 290 3 198 3
197 773 0 773 0 21 -57 c128 -357 239 -893 283 -1360 l13 -133 143 0 c116 0
143 3 143 14 0 8 -7 78 -15 157 -54 515 -134 937 -244 1287 l-29 92 422 0 422
0 71 -107 c136 -209 219 -361 306 -568 285 -679 352 -1434 186 -2115 -77 -316
-200 -616 -378 -922 l-56 -98 -464 0 -463 0 6 23 c144 501 226 1005 241 1479
4 100 8 193 11 205 4 21 7 22 232 25 207 3 230 5 262 23 97 57 91 202 -10 257
-33 17 -64 18 -590 16 -553 -3 -555 -3 -586 -25 -17 -12 -38 -39 -47 -60 -26
-59 -138 -378 -208 -590 -35 -106 -67 -189 -70 -185 -4 4 -53 196 -109 427
-235 973 -464 1875 -487 1918 -29 57 -110 87 -183 67 -73 -20 -92 -48 -148
-225 -92 -290 -170 -537 -237 -755 -37 -118 -129 -411 -205 -650 -76 -239
-173 -545 -215 -680 -93 -299 -85 -274 -89 -269 -3 4 -51 176 -195 699 -329
1202 -347 1267 -369 1304 -28 49 -77 76 -134 76 -63 0 -112 -23 -137 -64 -11
-17 -49 -123 -86 -236 -36 -113 -107 -328 -157 -477 l-90 -273 -977 0 -977 0
3 38 c41 452 169 908 364 1293 64 127 200 354 253 424 l23 30 420 -3 421 -2
-29 -90z m2731 -1321 c72 -294 155 -637 186 -764 182 -748 245 -998 259 -1025
19 -36 83 -69 133 -70 38 0 92 23 116 49 15 16 165 422 352 949 l69 193 114 2
113 2 -7 -145 c-24 -520 -96 -978 -227 -1442 l-41 -148 -804 0 -803 0 -2 438
c-2 240 -6 430 -9 422 -4 -8 -30 -87 -59 -175 -56 -173 -130 -339 -185 -416
-35 -49 -35 -49 -35 -159 l0 -110 -804 0 -805 0 -25 83 c-127 419 -214 924
-246 1417 -5 91 -10 181 -10 200 l0 35 292 -3 c313 -3 345 0 397 44 25 21 40
55 90 212 131 405 159 486 164 472 4 -8 34 -114 68 -235 33 -121 85 -308 115
-415 30 -107 75 -269 100 -360 66 -240 270 -951 282 -981 24 -60 110 -98 180
-80 83 23 80 17 233 491 77 239 186 575 241 745 55 171 167 522 249 780 83
259 155 485 160 503 6 18 13 31 15 29 2 -2 63 -244 134 -538z m-3000 -773 c0
-302 51 -751 125 -1093 35 -160 90 -376 118 -460 l24 -73 -466 0 -467 0 -62
103 c-265 442 -433 987 -460 1494 -4 74 -6 135 -5 136 1 1 269 1 597 -1 l596
-2 0 -104z m389 -1988 c52 -128 180 -382 251 -494 124 -199 313 -432 425 -524
29 -24 52 -46 50 -49 -7 -7 -196 72 -339 141 -237 117 -472 264 -671 423 -122
96 -368 336 -479 465 -44 52 -84 97 -88 98 -39 18 42 22 405 22 l413 0 33 -82z
m1779 -580 l2 -658 -24 0 c-106 0 -361 74 -500 145 -277 141 -553 418 -763
763 -61 101 -182 340 -197 390 l-7 22 743 -2 743 -3 3 -657z m1772 649 c0 -23
-145 -310 -213 -419 -104 -171 -201 -293 -341 -434 -223 -222 -432 -348 -696
-418 -50 -14 -123 -28 -161 -32 l-69 -7 0 662 0 661 740 0 c593 0 740 -3 740
-13z m1150 7 c0 -8 -88 -110 -207 -239 -207 -226 -531 -481 -837 -660 -142
-83 -506 -255 -540 -255 -2 0 52 55 118 123 259 261 463 591 627 1015 l9 22
415 0 c228 0 415 -3 415 -6z"/>
</g>
</svg>
