<?xml version="1.0" standalone="no"?>
<!DOCTYPE svg PUBLIC "-//W3C//DTD SVG 20010904//EN"
 "http://www.w3.org/TR/2001/REC-SVG-20010904/DTD/svg10.dtd">
<svg version="1.0" xmlns="http://www.w3.org/2000/svg"
 width="1024.000000pt" height="1024.000000pt" viewBox="0 0 1024.000000 1024.000000"
 preserveAspectRatio="xMidYMid meet">

<g transform="translate(0.000000,1024.000000) scale(0.100000,-0.100000)"
fill="#000000" stroke="none">
<path d="M4895 9163 c-1195 -73 -2291 -688 -2982 -1673 -665 -947 -882 -2226
-568 -3345 257 -915 819 -1700 1595 -2227 526 -358 1131 -574 1820 -650 173
-19 573 -16 765 6 1155 129 2120 701 2802 1661 354 497 593 1117 673 1741 24
182 42 512 35 623 -2 42 -7 125 -10 186 -25 482 -162 1007 -381 1463 -433 903
-1211 1611 -2170 1975 -474 180 -1075 271 -1579 240z m95 -864 l0 -549 -761 0
-761 0 23 38 c100 167 241 358 371 502 201 223 491 416 749 499 119 37 343 76
372 63 4 -2 7 -250 7 -553z m543 512 c200 -51 377 -136 579 -281 92 -65 343
-320 426 -432 65 -87 222 -329 222 -343 0 -3 -340 -5 -755 -5 l-755 0 0 553 0
553 84 -8 c47 -5 136 -21 199 -37z m-1797 -283 c-181 -182 -348 -408 -486
-660 l-65 -118 -345 1 -345 0 108 105 c288 278 705 560 1037 702 120 51 190
79 202 81 4 1 -44 -50 -106 -111z m2834 42 c247 -108 547 -290 782 -472 106
-83 307 -258 362 -317 l30 -31 -345 0 -344 0 -47 93 c-125 245 -350 549 -541
730 l-72 67 40 -14 c22 -7 83 -33 135 -56z m-2887 -1098 l178 -2 15 -35 c19
-47 17 -132 -5 -180 -23 -51 -66 -88 -128 -111 -244 -89 -309 -124 -369 -204
-14 -19 -48 -80 -74 -135 -50 -104 -112 -176 -207 -245 l-42 -30 5 33 c33 188
186 715 252 867 l19 45 89 -1 c49 0 169 -1 267 -2z m3213 0 c21 -13 184 -477
172 -487 -2 -1 -21 -11 -43 -21 -56 -26 -105 -79 -166 -180 -30 -48 -69 -103
-88 -121 -36 -35 -111 -63 -167 -63 -42 0 -52 18 -60 107 -7 77 -4 82 60 103
55 18 120 81 146 142 31 73 38 190 15 273 -13 49 -29 77 -66 120 -37 43 -49
64 -49 89 0 18 3 36 7 39 9 9 225 9 239 -1z m-3841 -19 c-86 -203 -241 -738
-291 -1006 -15 -82 -20 -96 -34 -92 -50 16 -161 35 -206 35 -115 0 -242 -44
-319 -111 -91 -80 -156 -226 -157 -354 0 -151 62 -218 225 -241 52 -7 51 -5
41 -91 -4 -29 -12 -53 -18 -53 -18 1 -125 52 -240 115 -169 93 -208 150 -240
352 -20 128 -66 273 -107 338 l-32 50 23 65 c108 313 276 645 457 903 l76 107
414 0 c392 0 415 -1 408 -17z m1937 -845 l3 -862 33 119 c18 66 75 262 127
436 l95 316 0 427 0 426 603 0 604 0 12 -57 c16 -69 39 -110 81 -141 50 -37
70 -79 70 -145 0 -65 -21 -119 -53 -142 -12 -8 -43 -18 -69 -21 -100 -13 -133
-67 -132 -209 2 -157 46 -250 140 -296 40 -19 57 -21 135 -17 149 9 242 69
337 218 72 113 122 157 141 122 10 -18 82 -364 78 -369 -2 -1 -43 3 -92 9 -75
9 -106 9 -187 -5 -206 -35 -365 -147 -505 -355 -63 -95 -63 -80 -16 -279 l27
-113 21 68 c78 242 256 444 443 502 41 13 93 20 143 20 76 0 176 -15 191 -29
19 -17 68 -458 68 -607 l0 -104 141 0 141 0 -7 103 c-10 168 -25 360 -31 389
l-5 27 43 -21 c68 -34 170 -31 283 9 50 17 118 37 152 43 34 7 75 20 91 30 39
24 198 236 217 290 19 55 19 131 -1 178 -39 93 -124 138 -251 130 -85 -6 -109
-19 -163 -91 -57 -76 -62 -73 -265 123 -66 63 -157 139 -201 168 l-81 53 -62
189 c-34 104 -74 221 -90 260 l-29 70 417 0 418 0 90 -132 c310 -456 523 -978
607 -1488 30 -180 49 -382 44 -459 l-3 -53 -43 38 c-26 25 -63 78 -98 144 -65
122 -171 285 -207 318 -59 55 -147 28 -147 -46 0 -29 14 -57 66 -132 36 -52
93 -146 127 -209 75 -139 137 -209 219 -250 34 -17 67 -31 75 -31 9 0 13 -14
13 -47 0 -70 -42 -136 -142 -224 -153 -136 -231 -220 -270 -294 -58 -112 -69
-162 -75 -340 -6 -193 -9 -203 -133 -331 -74 -77 -97 -109 -149 -211 -81 -159
-131 -236 -199 -306 -109 -111 -206 -153 -381 -164 -100 -6 -104 -5 -97 13 4
10 23 72 42 136 109 366 200 911 220 1306 l7 132 -134 0 -135 0 -22 -232 c-45
-478 -123 -901 -242 -1310 l-11 -38 -889 0 -890 0 -1 408 c-1 224 -3 398 -6
387 -2 -11 -18 -63 -34 -115 -44 -139 -94 -233 -161 -303 l-58 -62 0 -157 0
-158 -420 0 -420 0 29 59 c52 102 101 147 206 187 55 21 131 89 140 127 5 17
-1 37 -18 63 -13 22 -35 65 -48 97 -12 31 -26 54 -29 50 -4 -5 -17 -36 -29
-70 -13 -34 -30 -68 -39 -76 -10 -9 -59 -36 -110 -62 -112 -56 -133 -81 -227
-252 l-70 -128 -272 -3 -273 -2 -1 22 c-13 430 -14 441 -41 498 -37 82 -74
118 -217 213 l-129 86 -16 90 c-37 200 -76 542 -76 665 0 14 -19 16 -132 16
l-133 0 0 -218 c1 -197 3 -224 23 -287 13 -38 32 -133 43 -210 36 -251 107
-565 173 -768 14 -43 26 -82 26 -87 0 -7 -162 -9 -451 -8 l-451 3 -40 70
c-262 459 -444 1014 -487 1490 -6 66 -13 137 -15 158 l-4 37 1121 0 1121 0 44
21 c24 12 52 35 62 51 10 16 62 154 115 306 114 324 122 342 128 322 2 -8 96
-316 207 -685 112 -368 240 -792 285 -942 45 -149 89 -283 99 -297 32 -50 115
-75 184 -57 42 12 95 50 112 81 24 45 760 2520 760 2556 0 28 18 5 25 -33 24
-136 544 -2352 556 -2375 37 -70 166 -100 247 -59 27 14 48 35 61 59 21 42
448 994 462 1029 l9 23 443 0 c472 0 489 2 540 48 76 71 51 208 -46 252 -40
18 -71 20 -546 20 -631 0 -572 17 -669 -196 -27 -60 -104 -230 -172 -379 -67
-148 -125 -273 -129 -277 -4 -4 -22 59 -40 140 -18 81 -58 255 -88 387 -30
132 -70 308 -89 390 -18 83 -49 218 -69 300 -19 83 -47 202 -61 265 -102 453
-247 1048 -260 1067 -54 83 -197 94 -279 22 -41 -36 -29 -1 -215 -654 -73
-253 -176 -611 -230 -795 -54 -184 -155 -531 -225 -770 -70 -239 -130 -438
-134 -443 -4 -4 -31 70 -60 165 -86 284 -420 1394 -458 1523 -20 66 -44 137
-54 157 -26 50 -81 78 -154 78 -102 0 -139 -34 -188 -175 -62 -179 -278 -769
-288 -787 -9 -17 -64 -18 -1070 -18 l-1060 0 5 33 c3 17 8 73 11 122 11 173
65 508 107 665 l12 44 13 -79 c27 -160 54 -287 74 -340 29 -77 97 -165 159
-205 82 -53 128 -60 372 -60 249 0 236 -5 257 98 26 125 7 210 -53 239 -33 15
-39 15 -100 -1 -109 -30 -135 -10 -123 95 13 104 82 203 172 245 88 41 227 28
298 -29 l28 -22 -20 -242 c-12 -133 -21 -272 -21 -310 l0 -68 135 0 c109 0
135 3 135 14 0 57 36 450 55 600 17 137 27 188 39 195 8 6 55 34 103 61 59 34
114 76 168 130 68 67 88 96 129 180 26 55 57 111 68 125 38 48 111 90 222 125
177 57 247 108 302 220 33 66 37 83 38 157 0 46 -2 95 -7 111 l-7 27 470 0
470 0 2 -862z m2585 -55 c158 -150 175 -162 240 -170 71 -8 130 20 179 86 21
27 50 55 66 62 51 21 108 -9 108 -58 0 -32 -61 -125 -125 -188 -47 -47 -58
-52 -166 -83 -153 -44 -190 -43 -293 4 l-81 37 -33 196 c-18 108 -35 206 -38
219 -4 12 -3 22 1 22 4 0 67 -57 142 -127z m1142 -1925 c-72 -411 -198 -787
-378 -1133 -38 -71 -83 -154 -100 -182 l-33 -53 -165 0 -166 0 27 33 c75 92
142 195 202 312 51 98 84 147 134 200 160 170 180 218 189 450 8 186 17 219
83 312 29 40 214 212 229 213 3 0 -7 -69 -22 -152z m-5611 -817 c54 -29 98
-73 110 -112 6 -19 13 -118 16 -222 4 -103 9 -194 12 -202 4 -10 0 -15 -13
-15 -12 0 -23 11 -30 33 -23 64 -73 245 -103 372 -17 72 -34 138 -36 148 -7
22 -2 21 44 -2z m642 -836 c0 -2 -13 -27 -29 -54 -83 -140 -81 -268 6 -449 41
-85 38 -119 -10 -136 -24 -9 -31 -6 -57 25 -31 35 -165 241 -193 296 -18 33
-32 121 -41 246 l-6 77 165 0 c91 0 165 -2 165 -5z m-656 -130 c171 -387 361
-676 620 -942 65 -68 116 -123 113 -123 -24 0 -329 148 -482 233 -387 216
-799 565 -1058 896 l-49 61 402 -2 401 -3 53 -120z m1896 -586 l0 -712 -72 7
c-306 30 -634 178 -903 406 -81 69 -235 222 -235 234 0 3 6 6 13 6 27 0 99 62
114 98 23 56 12 141 -30 232 -39 83 -63 183 -54 220 3 14 34 69 67 123 l61 97
520 0 519 0 0 -711z m1905 689 c-4 -13 -46 -104 -95 -203 -206 -420 -470 -729
-815 -955 -188 -123 -453 -217 -662 -236 l-73 -7 0 712 0 711 826 0 825 0 -6
-22z m1089 10 c-28 -48 -200 -244 -308 -351 -291 -290 -614 -521 -993 -711
-122 -61 -283 -130 -289 -123 -2 2 26 28 62 58 125 103 316 336 451 549 77
122 176 312 244 468 l53 122 394 0 c312 0 392 -3 386 -12z"/>
<path d="M3924 4920 c-34 -33 -59 -62 -56 -65 3 -3 16 -5 28 -5 62 0 96 -39
133 -151 25 -76 46 -99 116 -129 28 -12 58 -29 68 -37 9 -9 17 -14 17 -12 -1
28 -122 395 -136 411 -19 21 -73 48 -96 48 -7 0 -41 -27 -74 -60z"/>
</g>
</svg>
