<?xml version="1.0" standalone="no"?>
<!DOCTYPE svg PUBLIC "-//W3C//DTD SVG 20010904//EN"
 "http://www.w3.org/TR/2001/REC-SVG-20010904/DTD/svg10.dtd">
<svg version="1.0" xmlns="http://www.w3.org/2000/svg"
 width="1024.000000pt" height="1024.000000pt" viewBox="0 0 1024.000000 1024.000000"
 preserveAspectRatio="xMidYMid meet">

<g transform="translate(0.000000,1024.000000) scale(0.100000,-0.100000)"
fill="#000000" stroke="none">
<path d="M4806 9139 c-908 -70 -1750 -453 -2389 -1087 -326 -323 -551 -629
-743 -1012 -497 -991 -548 -2146 -142 -3170 137 -347 331 -676 582 -990 121
-150 390 -423 539 -546 510 -419 1106 -703 1737 -828 259 -51 371 -61 720 -61
338 0 410 5 677 50 775 131 1512 514 2078 1080 653 652 1038 1488 1116 2424
15 176 6 598 -15 760 -67 502 -186 891 -403 1314 -321 624 -830 1168 -1423
1521 -485 289 -997 462 -1570 531 -161 19 -594 28 -764 14z m174 -934 l0 -645
-715 0 c-393 0 -715 3 -715 8 0 37 125 310 210 458 242 421 522 676 845 769
105 30 236 53 318 54 l57 1 0 -645z m446 634 c112 -15 245 -52 349 -95 297
-125 592 -448 800 -879 52 -107 125 -281 125 -297 0 -4 -324 -8 -720 -8 l-720
0 0 645 0 645 44 0 c25 0 80 -5 122 -11z m-1591 -251 c-194 -210 -393 -545
-525 -886 l-55 -141 -447 -1 c-247 0 -448 3 -448 6 0 14 175 207 278 306 330
319 677 546 1109 728 76 32 142 58 146 59 5 1 -21 -32 -58 -71z m2912 -102
c317 -159 599 -358 853 -603 111 -106 290 -302 290 -317 0 -3 -201 -6 -448 -6
l-447 0 -24 68 c-36 101 -136 325 -193 432 -108 201 -221 366 -353 514 l-76
85 144 -58 c79 -33 193 -84 254 -115z m-3581 -1203 c-3 -10 -16 -63 -30 -118
-113 -451 -186 -964 -212 -1477 l-6 -138 134 0 134 0 12 211 c28 489 104 986
212 1382 22 82 40 151 40 153 0 2 344 4 765 4 l765 0 1 -662 1 -663 25 75 c13
41 75 237 136 435 l111 360 4 228 3 227 768 0 768 0 47 -173 c110 -412 181
-872 207 -1359 l12 -218 135 0 135 0 -7 163 c-16 364 -70 802 -142 1157 -25
123 -87 381 -100 414 -6 15 35 16 495 16 l501 0 70 -106 c337 -512 521 -1092
550 -1739 33 -751 -163 -1487 -557 -2082 l-54 -83 -500 0 c-362 0 -499 3 -499
11 0 6 16 70 35 143 113 429 205 1106 205 1506 l0 75 -133 -3 -134 -3 -6 -167
c-13 -341 -52 -671 -117 -992 -36 -179 -99 -428 -133 -525 l-14 -40 -762 -3
-762 -2 3 470 c2 259 0 463 -4 453 -3 -10 -41 -128 -83 -263 -43 -135 -86
-261 -96 -281 -10 -20 -39 -55 -64 -77 l-45 -40 0 -131 0 -131 -761 2 -762 3
-14 40 c-26 72 -93 340 -124 491 -64 316 -103 615 -120 929 -6 110 -13 215
-15 233 l-5 32 -131 0 -131 0 7 -152 c20 -456 92 -967 195 -1383 22 -88 43
-168 46 -177 7 -17 -21 -18 -493 -18 l-500 0 -24 33 c-102 133 -284 474 -363
677 -129 331 -207 687 -231 1048 l-7 102 1079 0 c1029 0 1081 1 1120 19 22 10
50 30 60 44 11 14 65 146 119 294 54 147 101 271 104 275 4 4 30 -77 60 -180
30 -103 76 -259 102 -347 26 -88 131 -446 234 -795 103 -349 194 -650 202
-667 42 -90 195 -101 249 -18 9 13 67 185 130 382 104 323 508 1593 632 1983
l49 155 165 -670 c91 -368 203 -825 249 -1014 76 -313 87 -348 114 -377 57
-60 154 -69 213 -19 16 13 41 52 57 87 15 35 80 178 145 318 64 140 143 317
175 392 l58 137 583 3 c573 3 583 3 611 24 40 30 73 82 73 116 0 46 -26 96
-62 118 -32 19 -49 20 -668 20 l-636 0 -44 -22 c-24 -13 -52 -34 -62 -48 -10
-14 -53 -106 -96 -205 -129 -295 -197 -444 -203 -445 -3 0 -11 26 -18 58 -13
57 -127 523 -371 1515 -122 495 -136 541 -162 568 -72 72 -208 55 -253 -31 -9
-18 -50 -145 -91 -283 -98 -329 -272 -887 -496 -1587 -99 -311 -186 -583 -193
-605 -10 -32 -13 -36 -18 -20 -3 11 -42 137 -86 280 -43 143 -161 537 -261
875 -100 338 -192 651 -205 695 -24 80 -50 117 -102 144 -30 15 -97 14 -136
-3 -66 -28 -68 -31 -247 -546 -37 -107 -80 -228 -95 -267 l-27 -73 -1025 0
-1024 0 6 78 c36 472 116 817 275 1189 79 184 175 358 311 565 l24 38 503 0
c475 0 503 -1 498 -17z m134 -4366 c66 -166 229 -487 309 -610 80 -122 160
-225 240 -309 30 -32 51 -58 48 -58 -18 0 -227 89 -343 145 -228 112 -457 258
-664 424 -197 158 -336 296 -509 504 -13 16 8 17 430 17 l444 0 45 -113z
m1680 -533 l0 -645 -57 6 c-102 12 -255 45 -345 75 -178 60 -305 139 -457 285
-154 148 -255 282 -386 514 -49 86 -161 329 -179 389 l-7 22 715 0 716 0 0
-646z m1720 642 c0 -2 -18 -48 -41 -102 -94 -227 -236 -476 -364 -638 -79
-101 -239 -258 -325 -318 -165 -116 -400 -198 -637 -223 l-63 -6 0 646 0 645
715 0 c393 0 715 -2 715 -4z m1190 -2 c0 -11 -198 -229 -272 -300 -360 -341
-774 -598 -1278 -792 -8 -3 20 32 63 78 218 232 413 559 554 926 l36 94 448 0
c247 0 449 -3 449 -6z"/>
</g>
</svg>
